<svg xmlns:xlink="http://www.w3.org/1999/xlink" width="30" height="32" viewBox="0 0 30 32" fill="none" xmlns="http://www.w3.org/2000/svg">
<path d="M22.5 2.66666H10C8.67392 2.66666 7.40215 3.22856 6.46447 4.22875C5.52678 5.22895 5 6.5855 5 7.99999V24C5 25.4145 5.52678 26.771 6.46447 27.7712C7.40215 28.7714 8.67392 29.3333 10 29.3333H22.5C23.163 29.3333 23.7989 29.0524 24.2678 28.5523C24.7366 28.0522 25 27.3739 25 26.6667V5.33332C25 4.62608 24.7366 3.9478 24.2678 3.4477C23.7989 2.94761 23.163 2.66666 22.5 2.66666ZM7.5 7.99999C7.5 7.29275 7.76339 6.61447 8.23223 6.11437C8.70107 5.61427 9.33696 5.33332 10 5.33332H22.5V18.6667H10C9.1188 18.6706 8.25499 18.9286 7.5 19.4133V7.99999ZM10 26.6667C9.33696 26.6667 8.70107 26.3857 8.23223 25.8856C7.76339 25.3855 7.5 24.7072 7.5 24C7.5 23.2927 7.76339 22.6145 8.23223 22.1144C8.70107 21.6143 9.33696 21.3333 10 21.3333H22.5V26.6667H10ZM12.5 10.6667H17.5C17.8315 10.6667 18.1495 10.5262 18.3839 10.2761C18.6183 10.0261 18.75 9.68695 18.75 9.33332C18.75 8.9797 18.6183 8.64056 18.3839 8.39051C18.1495 8.14047 17.8315 7.99999 17.5 7.99999H12.5C12.1685 7.99999 11.8505 8.14047 11.6161 8.39051C11.3817 8.64056 11.25 8.9797 11.25 9.33332C11.25 9.68695 11.3817 10.0261 11.6161 10.2761C11.8505 10.5262 12.1685 10.6667 12.5 10.6667V10.6667Z" fill="#1A1A1A"/>
</svg>