<svg xmlns:xlink="http://www.w3.org/1999/xlink" width="18" height="18" viewBox="0 0 18 18" fill="none" xmlns="http://www.w3.org/2000/svg">
<path d="M17.565 7.935C17.4256 7.79441 17.2597 7.68282 17.0769 7.60666C16.8941 7.53051 16.6981 7.4913 16.5 7.4913C16.302 7.4913 16.106 7.53051 15.9232 7.60666C15.7404 7.68282 15.5745 7.79441 15.435 7.935L10.5 12.885V1.5C10.5 1.10218 10.342 0.720645 10.0607 0.43934C9.77939 0.158036 9.39786 0 9.00003 0C8.60221 0 8.22068 0.158036 7.93937 0.43934C7.65807 0.720645 7.50003 1.10218 7.50003 1.5V12.885L2.56503 7.935C2.28258 7.65254 1.89949 7.49386 1.50003 7.49386C1.10058 7.49386 0.71749 7.65254 0.435034 7.935C0.152578 8.21746 -0.00610352 8.60055 -0.00610352 9C-0.00610352 9.39945 0.152578 9.78254 0.435034 10.065L7.93503 17.565C8.07769 17.7016 8.24591 17.8086 8.43003 17.88C8.60959 17.9594 8.80373 18.0003 9.00003 18.0003C9.19634 18.0003 9.39048 17.9594 9.57004 17.88C9.75416 17.8086 9.92238 17.7016 10.065 17.565L17.565 10.065C17.7056 9.92556 17.8172 9.75965 17.8934 9.57687C17.9695 9.39408 18.0087 9.19802 18.0087 9C18.0087 8.80198 17.9695 8.60592 17.8934 8.42313C17.8172 8.24035 17.7056 8.07444 17.565 7.935Z" fill="#08A965"/>
</svg>