<svg width="1468" height="443" viewBox="0 0 1468 443" fill="none" xmlns="http://www.w3.org/2000/svg">
<path d="M153.896 9.9375H141C132.386 9.93754 124.334 11.9269 116.834 15.8955C111.318 18.7601 107.511 23.0576 105.417 28.792C103.318 34.5317 102.271 46.2243 102.271 63.875V166.479H154.674V186.354H102.271V295.562C102.271 313.661 103.376 325.687 105.584 331.646C107.344 336.062 111.094 339.812 116.834 342.896C124.334 347.093 132.386 349.187 141 349.188H153.896V359.104H0V349.188H12.584C27.5838 349.187 38.3965 344.885 45.0215 336.271C49.214 330.76 51.3125 317.187 51.3125 295.562V63.875C51.3125 45.5732 50.2083 33.4379 48 27.4795C46.2344 23.0628 42.5885 19.3128 37.0625 16.2295C29.3387 12.0369 21.1776 9.93757 12.584 9.9375H0V0H153.896V9.9375ZM319.729 295.562C319.729 313.661 320.938 325.687 323.354 331.646C325.131 336.062 328.776 339.812 334.292 342.896C342.011 347.093 350.068 349.188 358.459 349.188H371.354V359.104H217.792V349.188H230.354C244.922 349.188 255.626 344.885 262.459 336.271C266.875 330.76 269.084 317.187 269.084 295.562V274.325H319.729V295.562ZM319.729 264.913H269.084V254.466H319.729V264.913ZM371.354 9.9375H358.459C350.068 9.9375 342.011 11.9268 334.292 15.8955C328.776 18.7601 324.969 23.0576 322.875 28.792C320.776 34.5317 319.729 46.2244 319.729 63.875V245.054H269.084V186.354H215.054V166.479H269.084V63.875C269.084 45.5732 267.865 33.4379 265.438 27.4795C263.672 23.063 260.032 19.3128 254.521 16.2295C246.798 12.0368 238.74 9.93751 230.354 9.9375H217.792V0H371.354V9.9375ZM205.643 166.479V186.354H164.085V166.479H205.643Z" fill="black"/>
<path d="M577.346 136.392H643.429V95.7665C643.429 88.5165 642.939 83.7145 641.971 81.3499C641.273 79.5999 639.835 78.1155 637.658 76.8915C634.601 75.2249 631.408 74.3915 628.075 74.3915H623.096V70.454H683.929V74.3915H678.804C675.481 74.3915 672.294 75.178 669.242 76.7457C667.059 77.8863 665.554 79.5947 664.721 81.8707C663.887 84.1363 663.471 88.7665 663.471 95.7665V187.517C663.471 194.683 663.955 199.449 664.929 201.808C665.622 203.558 667.059 205.048 669.242 206.267C672.294 207.933 675.481 208.767 678.804 208.767H683.929V212.683H623.096V208.767H628.075C633.851 208.767 638.096 207.058 640.804 203.642C642.554 201.464 643.429 196.089 643.429 187.517V144.267H577.346V187.517C577.346 194.683 577.783 199.449 578.658 201.808C579.367 203.558 580.851 205.048 583.117 206.267C586.085 207.933 589.283 208.767 592.7 208.767H597.804V212.683H536.846V208.767H541.825C547.768 208.767 552.054 207.058 554.679 203.642C556.33 201.464 557.158 196.089 557.158 187.517V95.7665C557.158 88.5165 556.726 83.7145 555.867 81.3499C555.158 79.5999 553.71 78.1155 551.533 76.8915C548.476 75.2249 545.242 74.3915 541.825 74.3915H536.846V70.454H597.804V74.3915H592.7C589.283 74.3915 586.085 75.178 583.117 76.7457C580.934 77.8863 579.429 79.5947 578.596 81.8707C577.762 84.1363 577.346 88.7665 577.346 95.7665V136.392Z" fill="black"/>
<path d="M780.408 116.6V174.808C780.408 185.907 780.663 192.704 781.179 195.204C781.705 197.694 782.538 199.433 783.679 200.433C784.815 201.433 786.169 201.933 787.742 201.933C789.919 201.933 792.367 201.324 795.075 200.1L796.533 203.767L767.825 215.579H763.096V195.246C754.887 204.261 748.596 209.907 744.221 212.183C739.846 214.449 735.252 215.579 730.45 215.579C725.127 215.579 720.476 214.032 716.492 210.933C712.518 207.824 709.768 203.824 708.242 198.933C706.71 194.032 705.95 187.131 705.95 178.225V135.35C705.95 130.808 705.46 127.662 704.492 125.912C703.533 124.162 702.096 122.808 700.179 121.85C698.262 120.892 694.768 120.454 689.7 120.537V116.6H723.387V180.975C723.387 189.881 724.934 195.735 728.033 198.537C731.127 201.329 734.867 202.725 739.242 202.725C742.294 202.725 745.726 201.787 749.533 199.912C753.335 198.037 757.856 194.433 763.096 189.1V134.704C763.096 129.194 762.085 125.475 760.075 123.558C758.075 121.631 753.929 120.621 747.637 120.537V116.6H780.408Z" fill="black"/>
<path d="M830.874 177.683C825.01 174.808 820.504 170.798 817.353 165.642C814.213 160.475 812.645 154.798 812.645 148.6C812.645 139.074 816.228 130.902 823.395 124.079C830.562 117.261 839.733 113.85 850.916 113.85C860.093 113.85 868.046 116.079 874.77 120.537H895.103C898.072 120.537 899.817 120.631 900.332 120.808C900.858 120.975 901.213 121.282 901.395 121.725C901.822 122.339 902.041 123.428 902.041 124.996C902.041 126.829 901.864 128.095 901.52 128.787C901.254 129.152 900.858 129.444 900.332 129.662C899.817 129.871 898.072 129.975 895.103 129.975H882.645C886.572 134.964 888.541 141.386 888.541 149.246C888.541 158.162 885.108 165.808 878.249 172.183C871.385 178.558 862.192 181.746 850.666 181.746C845.858 181.746 841.004 181.053 836.103 179.662C832.963 182.277 830.864 184.59 829.812 186.6C828.77 188.616 828.249 190.324 828.249 191.725C828.249 192.949 828.812 194.11 829.937 195.204C831.072 196.287 833.301 197.095 836.624 197.621C838.635 197.886 843.53 198.1 851.312 198.267C865.728 198.616 875.082 199.142 879.374 199.85C885.832 200.725 891.004 203.131 894.895 207.058C898.78 210.991 900.728 215.798 900.728 221.475C900.728 229.423 897.01 236.803 889.582 243.621C878.749 253.84 864.551 258.954 846.999 258.954C833.442 258.954 822.03 255.938 812.77 249.912C807.53 246.423 804.916 242.798 804.916 239.037C804.916 237.371 805.301 235.673 806.082 233.933C807.218 231.392 809.671 227.808 813.437 223.183C813.864 222.574 817.4 218.819 824.041 211.912C820.457 209.72 817.9 207.777 816.374 206.079C814.843 204.371 814.082 202.428 814.082 200.246C814.082 197.787 815.088 194.923 817.103 191.642C819.114 188.366 823.707 183.715 830.874 177.683ZM849.228 118.829C843.978 118.829 839.603 120.886 836.103 124.996C832.614 129.11 830.874 135.444 830.874 143.996C830.874 155.011 833.275 163.579 838.082 169.704C841.666 174.329 846.249 176.642 851.832 176.642C857.166 176.642 861.551 174.657 864.999 170.683C868.457 166.699 870.187 160.428 870.187 151.871C870.187 140.777 867.739 132.079 862.853 125.787C859.353 121.152 854.812 118.829 849.228 118.829ZM829.812 212.683C826.572 216.267 824.103 219.595 822.395 222.662C820.697 225.72 819.853 228.553 819.853 231.162C819.853 234.496 821.905 237.428 826.02 239.954C833.004 244.23 843.093 246.371 856.291 246.371C868.874 246.371 878.155 244.168 884.145 239.767C890.129 235.35 893.124 230.61 893.124 225.537C893.124 221.954 891.332 219.381 887.749 217.808C884.082 216.324 876.874 215.407 866.124 215.058C850.4 214.699 838.296 213.907 829.812 212.683Z" fill="black"/>
<path d="M962.352 113.85C976.935 113.85 988.643 119.36 997.477 130.371C1004.9 139.803 1008.62 150.636 1008.62 162.871C1008.62 171.444 1006.57 180.142 1002.46 188.975C998.341 197.798 992.664 204.433 985.414 208.892C978.164 213.35 970.122 215.579 961.289 215.579C946.789 215.579 935.253 209.808 926.685 198.267C919.518 188.574 915.935 177.694 915.935 165.621C915.935 156.803 918.112 148.048 922.477 139.35C926.852 130.657 932.602 124.235 939.727 120.079C946.852 115.928 954.393 113.85 962.352 113.85ZM959.206 120.662C955.44 120.662 951.695 121.761 947.977 123.954C944.268 126.136 941.253 129.985 938.935 135.496C936.628 140.996 935.477 148.116 935.477 156.85C935.477 170.84 938.247 182.902 943.789 193.037C949.341 203.162 956.664 208.225 965.747 208.225C972.565 208.225 978.154 205.433 982.518 199.85C986.893 194.256 989.081 184.636 989.081 170.996C989.081 153.871 985.414 140.423 978.081 130.642C973.175 123.991 966.883 120.662 959.206 120.662Z" fill="black"/>
<path d="M1128.15 136.392H1194.23V95.7665C1194.23 88.5165 1193.74 83.7145 1192.78 81.3499C1192.08 79.5999 1190.64 78.1155 1188.46 76.8915C1185.41 75.2249 1182.21 74.3915 1178.88 74.3915H1173.9V70.454H1234.73V74.3915H1229.61C1226.29 74.3915 1223.1 75.178 1220.05 76.7457C1217.86 77.8863 1216.36 79.5947 1215.53 81.8707C1214.69 84.1363 1214.28 88.7665 1214.28 95.7665V187.517C1214.28 194.683 1214.76 199.449 1215.73 201.808C1216.43 203.558 1217.86 205.048 1220.05 206.267C1223.1 207.933 1226.29 208.767 1229.61 208.767H1234.73V212.683H1173.9V208.767H1178.88C1184.66 208.767 1188.9 207.058 1191.61 203.642C1193.36 201.464 1194.23 196.089 1194.23 187.517V144.267H1128.15V187.517C1128.15 194.683 1128.59 199.449 1129.46 201.808C1130.17 203.558 1131.66 205.048 1133.92 206.267C1136.89 207.933 1140.09 208.767 1143.5 208.767H1148.61V212.683H1087.65V208.767H1092.63C1098.57 208.767 1102.86 207.058 1105.48 203.642C1107.13 201.464 1107.96 196.089 1107.96 187.517V95.7665C1107.96 88.5165 1107.53 83.7145 1106.67 81.3499C1105.96 79.5999 1104.51 78.1155 1102.34 76.8915C1099.28 75.2249 1096.05 74.3915 1092.63 74.3915H1087.65V70.454H1148.61V74.3915H1143.5C1140.09 74.3915 1136.89 75.178 1133.92 76.7457C1131.74 77.8863 1130.23 79.5947 1129.4 81.8707C1128.57 84.1363 1128.15 88.7665 1128.15 95.7665V136.392Z" fill="black"/>
<path d="M1331.21 116.6V174.808C1331.21 185.907 1331.47 192.704 1331.98 195.204C1332.51 197.694 1333.34 199.433 1334.48 200.433C1335.62 201.433 1336.97 201.933 1338.55 201.933C1340.72 201.933 1343.17 201.324 1345.88 200.1L1347.34 203.767L1318.63 215.579H1313.9V195.246C1305.69 204.261 1299.4 209.907 1295.03 212.183C1290.65 214.449 1286.06 215.579 1281.25 215.579C1275.93 215.579 1271.28 214.032 1267.3 210.933C1263.32 207.824 1260.57 203.824 1259.05 198.933C1257.51 194.032 1256.75 187.131 1256.75 178.225V135.35C1256.75 130.808 1256.26 127.662 1255.3 125.912C1254.34 124.162 1252.9 122.808 1250.98 121.85C1249.07 120.892 1245.57 120.454 1240.5 120.537V116.6H1274.19V180.975C1274.19 189.881 1275.74 195.735 1278.84 198.537C1281.93 201.329 1285.67 202.725 1290.05 202.725C1293.1 202.725 1296.53 201.787 1300.34 199.912C1304.14 198.037 1308.66 194.433 1313.9 189.1V134.704C1313.9 129.194 1312.89 125.475 1310.88 123.558C1308.88 121.631 1304.73 120.621 1298.44 120.537V116.6H1331.21Z" fill="black"/>
<path d="M1389.01 63.5165V190.933C1389.01 196.964 1389.45 200.964 1390.32 202.933C1391.2 204.892 1392.55 206.381 1394.39 207.392C1396.22 208.392 1399.63 208.892 1404.62 208.892V212.683H1357.55V208.892C1361.93 208.892 1364.92 208.433 1366.53 207.517C1368.14 206.6 1369.41 205.095 1370.32 202.996C1371.24 200.902 1371.7 196.881 1371.7 190.933V103.767C1371.7 92.9228 1371.43 86.2561 1370.91 83.7665C1370.39 81.2822 1369.61 79.579 1368.55 78.6624C1367.51 77.7457 1366.12 77.2874 1364.37 77.2874C1362.62 77.2874 1360.34 77.8499 1357.55 78.9749L1355.72 75.3082L1384.28 63.5165H1389.01Z" fill="black"/>
<path d="M1451.41 63.5165V190.933C1451.41 196.964 1451.84 200.964 1452.72 202.933C1453.59 204.892 1454.95 206.381 1456.78 207.392C1458.61 208.392 1462.02 208.892 1467.01 208.892V212.683H1419.95V208.892C1424.32 208.892 1427.31 208.433 1428.93 207.517C1430.54 206.6 1431.8 205.095 1432.72 202.996C1433.64 200.902 1434.09 196.881 1434.09 190.933V103.767C1434.09 92.9228 1433.83 86.2561 1433.3 83.7665C1432.79 81.2822 1432 79.579 1430.95 78.6624C1429.91 77.7457 1428.51 77.2874 1426.76 77.2874C1425.01 77.2874 1422.74 77.8499 1419.95 78.9749L1418.11 75.3082L1446.68 63.5165H1451.41Z" fill="black"/>
<path d="M710.45 272.82V274.945C708.45 274.945 706.814 275.309 705.554 276.028C704.304 276.736 703.106 278.085 701.971 280.07C701.221 281.403 700.012 284.559 698.346 289.528L676.867 351.757H674.596L657.033 302.403L639.533 351.757H637.471L614.575 287.695C612.867 282.903 611.773 280.08 611.304 279.216C610.538 277.747 609.502 276.669 608.2 275.986C606.908 275.294 605.143 274.945 602.908 274.945V272.82H631.492V274.945H630.075C628.085 274.945 626.559 275.398 625.492 276.299C624.419 277.205 623.887 278.294 623.887 279.57C623.887 280.903 624.721 283.966 626.387 288.757L641.596 332.07L654.408 295.216L652.117 288.757L650.283 283.57C649.518 281.669 648.637 280.007 647.637 278.591C647.122 277.872 646.512 277.252 645.804 276.736C644.846 276.07 643.893 275.601 642.95 275.32C642.242 275.07 641.101 274.945 639.533 274.945V272.82H669.617V274.945H667.554C665.429 274.945 663.867 275.398 662.867 276.299C661.867 277.205 661.367 278.44 661.367 280.007C661.367 281.955 662.221 285.32 663.929 290.111L678.721 332.07L693.45 289.528C695.101 284.835 695.929 281.591 695.929 279.799C695.929 278.898 695.658 278.065 695.117 277.299C694.575 276.539 693.872 276.018 693.012 275.736C691.596 275.21 689.726 274.945 687.408 274.945V272.82H710.45Z" fill="black"/>
<path d="M736.528 277.007V307.528H753.465C757.867 307.528 760.804 306.861 762.278 305.528C764.262 303.778 765.372 300.726 765.611 296.361H767.674V323.174H765.611C765.038 319.424 764.497 317.028 763.986 315.986C763.32 314.669 762.2 313.627 760.632 312.861C759.075 312.101 756.684 311.716 753.465 311.716H736.528V337.111C736.528 340.528 736.679 342.606 736.986 343.341C737.304 344.08 737.84 344.674 738.59 345.132C739.351 345.58 740.778 345.799 742.861 345.799H755.945C760.304 345.799 763.476 345.497 765.465 344.882C767.465 344.257 769.367 343.065 771.174 341.299C773.533 338.94 775.95 335.382 778.424 330.632H780.695L774.007 349.986H714.549V347.861H717.257C719.101 347.861 720.83 347.434 722.445 346.57C723.679 345.96 724.512 345.049 724.945 343.841C725.372 342.632 725.59 340.153 725.59 336.403V286.257C725.59 281.382 725.09 278.377 724.09 277.236C722.757 275.71 720.476 274.945 717.257 274.945H714.549V272.82H774.007L774.861 289.757H772.653C771.846 285.674 770.955 282.877 769.986 281.361C769.012 279.835 767.58 278.669 765.695 277.861C764.179 277.294 761.497 277.007 757.653 277.007H736.528Z" fill="black"/>
<path d="M838.365 310.591C843.667 311.731 847.657 313.559 850.324 316.07C854.016 319.57 855.865 323.835 855.865 328.861C855.865 332.71 854.657 336.393 852.24 339.903C849.824 343.403 846.49 345.96 842.24 347.57C838.001 349.184 831.542 349.986 822.865 349.986H786.449V347.861H789.365C792.584 347.861 794.886 346.841 796.261 344.799C797.162 343.466 797.615 340.643 797.615 336.32V286.466C797.615 281.69 797.074 278.684 795.99 277.445C794.459 275.778 792.251 274.945 789.365 274.945H786.449V272.82H819.803C826.011 272.82 830.99 273.273 834.74 274.174C840.433 275.549 844.782 277.981 847.782 281.466C850.792 284.955 852.303 288.945 852.303 293.445C852.303 297.294 851.115 300.747 848.74 303.799C846.376 306.856 842.917 309.122 838.365 310.591ZM808.49 307.528C809.917 307.809 811.532 308.007 813.324 308.132C815.126 308.247 817.121 308.299 819.303 308.299C824.803 308.299 828.949 307.71 831.74 306.528C834.542 305.351 836.683 303.528 838.157 301.07C839.626 298.601 840.365 295.893 840.365 292.945C840.365 288.445 838.522 284.606 834.845 281.424C831.178 278.247 825.808 276.653 818.74 276.653C814.949 276.653 811.532 277.059 808.49 277.861V307.528ZM808.49 344.445C812.907 345.434 817.266 345.924 821.574 345.924C828.407 345.924 833.621 344.393 837.22 341.32C840.829 338.236 842.636 334.419 842.636 329.861C842.636 326.877 841.829 323.997 840.22 321.216C838.605 318.44 835.949 316.257 832.24 314.674C828.542 313.091 823.996 312.299 818.595 312.299C816.22 312.299 814.199 312.335 812.532 312.403C810.876 312.476 809.532 312.606 808.49 312.799V344.445Z" fill="black"/>
<path d="M901.641 349.986V347.861H904.557C907.833 347.861 910.141 346.815 911.474 344.716C912.318 343.497 912.745 340.695 912.745 336.32V286.466C912.745 281.69 912.224 278.684 911.182 277.445C909.667 275.778 907.458 274.945 904.557 274.945H901.641V272.82H933.078C944.604 272.82 953.37 274.143 959.37 276.778C965.37 279.403 970.203 283.768 973.87 289.861C977.547 295.945 979.391 302.997 979.391 311.007C979.391 321.731 976.12 330.695 969.578 337.903C962.271 345.96 951.125 349.986 936.141 349.986H901.641ZM923.703 344.445C928.495 345.486 932.521 346.007 935.786 346.007C944.604 346.007 951.901 342.919 957.682 336.736C963.474 330.544 966.37 322.164 966.37 311.591C966.37 300.914 963.474 292.502 957.682 286.361C951.901 280.226 944.463 277.153 935.37 277.153C931.953 277.153 928.062 277.705 923.703 278.799V344.445Z" fill="black"/>
<path d="M1009.88 277.007V307.528H1026.82C1031.22 307.528 1034.16 306.861 1035.63 305.528C1037.61 303.778 1038.72 300.726 1038.96 296.361H1041.03V323.174H1038.96C1038.39 319.424 1037.85 317.028 1037.34 315.986C1036.67 314.669 1035.55 313.627 1033.98 312.861C1032.43 312.101 1030.04 311.716 1026.82 311.716H1009.88V337.111C1009.88 340.528 1010.03 342.606 1010.34 343.341C1010.66 344.08 1011.19 344.674 1011.94 345.132C1012.7 345.58 1014.13 345.799 1016.21 345.799H1029.3C1033.66 345.799 1036.83 345.497 1038.82 344.882C1040.82 344.257 1042.72 343.065 1044.53 341.299C1046.89 338.94 1049.3 335.382 1051.78 330.632H1054.05L1047.36 349.986H987.901V347.861H990.609C992.453 347.861 994.182 347.434 995.796 346.57C997.031 345.96 997.864 345.049 998.296 343.841C998.724 342.632 998.942 340.153 998.942 336.403V286.257C998.942 281.382 998.442 278.377 997.442 277.236C996.109 275.71 993.828 274.945 990.609 274.945H987.901V272.82H1047.36L1048.21 289.757H1046C1045.2 285.674 1044.31 282.877 1043.34 281.361C1042.36 279.835 1040.93 278.669 1039.05 277.861C1037.53 277.294 1034.85 277.007 1031 277.007H1009.88Z" fill="black"/>
<path d="M1112.63 271.049V297.778H1110.51C1109.84 292.669 1108.62 288.601 1106.84 285.57C1105.06 282.528 1102.55 280.106 1099.3 278.299C1096.06 276.497 1092.69 275.591 1089.18 275.591C1085.24 275.591 1081.98 276.799 1079.38 279.216C1076.8 281.632 1075.51 284.382 1075.51 287.466C1075.51 289.799 1076.34 291.934 1078.01 293.861C1080.33 296.71 1085.93 300.507 1094.8 305.257C1101.99 309.148 1106.9 312.127 1109.53 314.195C1112.17 316.252 1114.2 318.674 1115.61 321.466C1117.04 324.257 1117.76 327.195 1117.76 330.278C1117.76 336.111 1115.49 341.153 1110.97 345.403C1106.44 349.643 1100.6 351.757 1093.45 351.757C1091.21 351.757 1089.1 351.591 1087.11 351.257C1085.97 351.08 1083.55 350.382 1079.84 349.174C1076.14 347.966 1073.81 347.361 1072.82 347.361C1071.87 347.361 1071.12 347.648 1070.57 348.216C1070.03 348.789 1069.62 349.966 1069.34 351.757H1067.2V325.299H1069.34C1070.33 330.856 1071.64 335.007 1073.3 337.757C1074.97 340.507 1077.51 342.789 1080.95 344.591C1084.39 346.382 1088.15 347.278 1092.24 347.278C1096.97 347.278 1100.72 346.039 1103.47 343.549C1106.22 341.065 1107.59 338.111 1107.59 334.695C1107.59 332.794 1107.07 330.872 1106.03 328.924C1104.99 326.981 1103.37 325.184 1101.2 323.528C1099.72 322.393 1095.68 319.976 1089.07 316.278C1082.46 312.585 1077.76 309.632 1074.99 307.424C1072.21 305.216 1070.1 302.789 1068.65 300.132C1067.21 297.481 1066.49 294.565 1066.49 291.382C1066.49 285.841 1068.6 281.07 1072.84 277.07C1077.09 273.059 1082.51 271.049 1089.11 271.049C1093.18 271.049 1097.51 272.065 1102.11 274.091C1104.25 275.049 1105.74 275.528 1106.59 275.528C1107.59 275.528 1108.39 275.231 1109.01 274.632C1109.63 274.039 1110.13 272.841 1110.51 271.049H1112.63Z" fill="black"/>
<path d="M1162.27 347.861V349.986H1129.2V347.861H1131.91C1135.13 347.861 1137.45 346.934 1138.87 345.07C1139.77 343.893 1140.23 340.976 1140.23 336.32V286.466C1140.23 282.591 1139.99 280.007 1139.52 278.716C1139.14 277.773 1138.36 276.966 1137.16 276.299C1135.51 275.398 1133.76 274.945 1131.91 274.945H1129.2V272.82H1162.27V274.945H1159.5C1156.33 274.945 1154.03 275.877 1152.6 277.736C1151.65 278.96 1151.18 281.872 1151.18 286.466V336.32C1151.18 340.21 1151.42 342.799 1151.89 344.091C1152.27 345.039 1153.07 345.841 1154.31 346.507C1155.92 347.414 1157.65 347.861 1159.5 347.861H1162.27Z" fill="black"/>
<path d="M1238.37 271.049L1240.37 295.445H1238.37C1236.38 289.377 1233.77 284.799 1230.54 281.716C1226 277.257 1220.12 275.028 1212.91 275.028C1203.05 275.028 1195.56 278.919 1190.43 286.695C1186.17 293.278 1184.04 301.101 1184.04 310.153C1184.04 317.502 1185.46 324.21 1188.31 330.278C1191.15 336.351 1194.88 340.799 1199.47 343.632C1204.07 346.455 1208.81 347.861 1213.68 347.861C1216.53 347.861 1219.28 347.507 1221.93 346.799C1224.6 346.08 1227.16 345.007 1229.62 343.591V321.32C1229.62 317.434 1229.32 314.898 1228.72 313.716C1228.14 312.539 1227.23 311.627 1226 310.986C1224.76 310.335 1222.58 310.007 1219.45 310.007V307.882H1249.33V310.007H1247.89C1244.96 310.007 1242.94 311.007 1241.85 313.007C1241.1 314.424 1240.72 317.195 1240.72 321.32V344.945C1236.36 347.268 1232.06 348.981 1227.81 350.091C1223.57 351.205 1218.84 351.757 1213.62 351.757C1198.73 351.757 1187.4 346.976 1179.62 337.403C1173.84 330.236 1170.95 321.96 1170.95 312.57C1170.95 305.794 1172.58 299.299 1175.85 293.091C1179.69 285.69 1185.01 280.002 1191.79 276.028C1197.42 272.71 1204.08 271.049 1211.77 271.049C1214.61 271.049 1217.17 271.289 1219.45 271.757C1221.73 272.231 1224.98 273.226 1229.2 274.736C1231.33 275.544 1232.75 275.945 1233.45 275.945C1234.17 275.945 1234.79 275.622 1235.31 274.966C1235.83 274.299 1236.15 272.997 1236.25 271.049H1238.37Z" fill="black"/>
<path d="M1249.46 272.82H1270.35L1317.58 330.716V286.195C1317.58 281.445 1317.04 278.481 1315.96 277.299C1314.58 275.731 1312.38 274.945 1309.33 274.945H1306.63V272.82H1333.52V274.945H1330.75C1327.47 274.945 1325.17 275.919 1323.85 277.861C1322.99 279.101 1322.56 281.877 1322.56 286.195V351.257H1320.5L1269.65 289.111V336.611C1269.65 341.361 1270.17 344.33 1271.21 345.507C1272.64 347.08 1274.84 347.861 1277.83 347.861H1280.6V349.986H1253.73V347.861H1256.42C1259.69 347.861 1262.02 346.893 1263.4 344.945C1264.24 343.71 1264.67 340.934 1264.67 336.611V282.986C1262.4 280.335 1260.7 278.601 1259.56 277.778C1258.42 276.945 1256.71 276.169 1254.44 275.445C1253.34 275.111 1251.68 274.945 1249.46 274.945V272.82Z" fill="black"/>
<path d="M1390.82 271.049V297.778H1388.7C1388.03 292.669 1386.81 288.601 1385.03 285.57C1383.25 282.528 1380.74 280.106 1377.49 278.299C1374.25 276.497 1370.87 275.591 1367.36 275.591C1363.43 275.591 1360.17 276.799 1357.57 279.216C1354.99 281.632 1353.7 284.382 1353.7 287.466C1353.7 289.799 1354.53 291.934 1356.2 293.861C1358.51 296.71 1364.11 300.507 1372.99 305.257C1380.18 309.148 1385.09 312.127 1387.72 314.195C1390.35 316.252 1392.38 318.674 1393.8 321.466C1395.23 324.257 1395.95 327.195 1395.95 330.278C1395.95 336.111 1393.68 341.153 1389.15 345.403C1384.62 349.643 1378.78 351.757 1371.63 351.757C1369.39 351.757 1367.28 351.591 1365.3 351.257C1364.16 351.08 1361.74 350.382 1358.03 349.174C1354.33 347.966 1351.99 347.361 1351.01 347.361C1350.06 347.361 1349.31 347.648 1348.76 348.216C1348.22 348.789 1347.81 349.966 1347.53 351.757H1345.38V325.299H1347.53C1348.51 330.856 1349.83 335.007 1351.49 337.757C1353.15 340.507 1355.7 342.789 1359.13 344.591C1362.58 346.382 1366.34 347.278 1370.43 347.278C1375.16 347.278 1378.9 346.039 1381.65 343.549C1384.4 341.065 1385.78 338.111 1385.78 334.695C1385.78 332.794 1385.26 330.872 1384.22 328.924C1383.18 326.981 1381.56 325.184 1379.38 323.528C1377.91 322.393 1373.87 319.976 1367.26 316.278C1360.64 312.585 1355.95 309.632 1353.18 307.424C1350.39 305.216 1348.28 302.789 1346.84 300.132C1345.39 297.481 1344.68 294.565 1344.68 291.382C1344.68 285.841 1346.79 281.07 1351.03 277.07C1355.28 273.059 1360.7 271.049 1367.3 271.049C1371.37 271.049 1375.7 272.065 1380.3 274.091C1382.44 275.049 1383.93 275.528 1384.78 275.528C1385.78 275.528 1386.58 275.231 1387.2 274.632C1387.82 274.039 1388.32 272.841 1388.7 271.049H1390.82Z" fill="black"/>
<path d="M210.346 249.757H377.158V147.153C377.158 128.851 375.94 116.715 373.512 110.757C371.747 106.34 368.106 102.59 362.596 99.5071C354.872 95.3144 346.815 93.2155 338.429 93.2155H325.867V83.278H479.429V93.2155H466.533C458.143 93.2155 450.085 95.205 442.367 99.1738C436.851 102.038 433.044 106.335 430.95 112.07C428.851 117.809 427.804 129.502 427.804 147.153V378.84C427.804 396.939 429.012 408.965 431.429 414.924C433.205 419.34 436.851 423.09 442.367 426.174C450.085 430.372 458.143 432.465 466.533 432.465H479.429V442.382H325.867V432.465H338.429C352.997 432.465 363.7 428.163 370.533 419.549C374.95 414.038 377.158 400.465 377.158 378.84V269.632H210.346V378.84C210.346 396.939 211.45 408.965 213.658 414.924C215.419 419.34 219.169 423.09 224.908 426.174C232.408 430.372 240.46 432.465 249.075 432.465H261.971V442.382H108.075V432.465H120.658C135.658 432.465 146.471 428.163 153.096 419.549C157.288 414.038 159.387 400.465 159.387 378.84V147.153C159.387 128.851 158.283 116.715 156.075 110.757C154.309 106.34 150.663 102.59 145.137 99.5071C137.413 95.3144 129.252 93.2155 120.658 93.2155H108.075V83.278H261.971V93.2155H249.075C240.46 93.2155 232.408 95.205 224.908 99.1738C219.393 102.038 215.585 106.335 213.492 112.07C211.393 117.809 210.346 129.502 210.346 147.153V249.757Z" fill="black"/>
</svg>
