<svg xmlns:xlink="http://www.w3.org/1999/xlink" width="18" height="18" viewBox="0 0 18 18" fill="none" xmlns="http://www.w3.org/2000/svg">
<path d="M17.565 7.935L10.065 0.434997C9.92238 0.298436 9.75416 0.191389 9.57004 0.119997C9.20484 -0.03003 8.79523 -0.03003 8.43003 0.119997C8.24591 0.191389 8.07769 0.298436 7.93503 0.434997L0.435034 7.935C0.295176 8.07486 0.184235 8.24089 0.108545 8.42362C0.0328543 8.60636 -0.00610352 8.80221 -0.00610352 9C-0.00610352 9.39945 0.152578 9.78254 0.435034 10.065C0.71749 10.3475 1.10058 10.5061 1.50003 10.5061C1.89949 10.5061 2.28258 10.3475 2.56503 10.065L7.50003 5.115V16.5C7.50003 16.8978 7.65807 17.2794 7.93937 17.5607C8.22068 17.842 8.60221 18 9.00003 18C9.39786 18 9.77939 17.842 10.0607 17.5607C10.342 17.2794 10.5 16.8978 10.5 16.5V5.115L15.435 10.065C15.5745 10.2056 15.7404 10.3172 15.9232 10.3933C16.106 10.4695 16.302 10.5087 16.5 10.5087C16.6981 10.5087 16.8941 10.4695 17.0769 10.3933C17.2597 10.3172 17.4256 10.2056 17.565 10.065C17.7056 9.92555 17.8172 9.75965 17.8934 9.57686C17.9695 9.39407 18.0087 9.19802 18.0087 9C18.0087 8.80198 17.9695 8.60592 17.8934 8.42313C17.8172 8.24034 17.7056 8.07444 17.565 7.935Z" fill="#08A965"/>
</svg>